<svg width="207" height="182" viewBox="0 0 207 182" fill="none" xmlns="http://www.w3.org/2000/svg">
<path d="M151.144 105.243C151.144 92.7419 151.021 81.334 150.651 70.8824C150.281 60.4307 149.419 51.4137 147.816 43.8994C146.337 36.3852 143.871 30.5104 140.42 26.2751C136.968 22.0399 132.284 19.9222 126.12 19.9222C124.271 19.9222 122.545 20.537 121.066 21.7666C119.587 22.9962 118.231 24.4991 116.998 26.2751C115.765 28.0512 114.903 29.8273 114.163 31.74C113.423 33.6528 113.177 35.1556 113.177 36.3169C113.177 45.2657 112.807 52.8482 112.067 59.1328C111.328 65.3491 110.095 70.4042 108.246 74.2979C106.397 78.1917 103.685 80.9924 100.357 82.7685C96.905 84.5446 92.5905 85.3643 87.1666 85.3643C85.564 85.3643 83.9615 84.8862 82.4823 83.9981C81.003 83.1101 79.647 81.9488 78.4143 80.5142C77.1816 79.0797 76.3187 77.5769 75.5791 75.9374C74.8395 74.2979 74.5929 72.7951 74.5929 71.3605C74.5929 59.5427 75.5791 49.9791 77.798 42.6015C79.8936 35.2922 81.003 29.8956 81.003 26.5484C81.003 23.5427 79.4005 22.0398 76.0722 22.0398C72.9904 22.0398 69.9086 23.1328 66.9501 25.3188C63.8683 27.5047 60.7865 30.3055 57.5815 33.5844C54.3764 36.8634 51.1714 40.4839 47.7198 44.3093C44.2682 48.1347 40.9399 51.6869 37.4883 55.0342C34.0367 58.3814 30.5851 61.1139 26.887 63.2998C23.3121 65.4858 19.614 66.5788 15.7925 66.5788C10.3686 66.5788 6.5472 65.759 4.32832 64.0512C2.10944 62.3435 1 60.0892 1 57.2201C1 54.351 2.10944 50.7306 4.32832 46.7685C6.5472 42.8065 9.50571 38.7761 13.0806 34.6091C16.6554 30.4421 20.9699 26.3435 25.7775 22.3131C30.5851 18.2827 35.5159 14.7306 40.5701 11.5882C45.6242 8.44592 50.555 5.91841 55.4859 4.00569C60.4167 2.02467 64.9778 1.06831 69.169 1.06831C71.018 1.06831 73.3602 1.06831 76.0722 1.27325C78.7841 1.40987 81.4961 1.68311 84.3313 2.02467C87.1666 2.43453 89.8785 2.91271 92.5905 3.59583C95.3025 4.27894 97.3981 5.03036 99.1239 5.91841C103.315 4.074 108.123 2.8444 113.547 2.09298C118.971 1.40987 125.874 1 134.256 1C142.639 1 149.788 2.50285 155.582 5.50854C161.376 8.51423 166.06 12.5446 169.882 17.6679C173.58 22.7913 176.538 28.8027 178.634 35.5655C180.729 42.3966 182.209 49.5693 183.195 57.2201C184.181 64.8027 184.674 72.5901 184.797 80.5825C184.921 88.575 184.921 96.2941 184.921 103.672V158.389C188.865 156.545 192.317 155.315 195.275 154.7C198.234 154.085 200.33 153.744 201.809 153.744C202.918 153.744 204.028 153.88 204.767 154.154C205.63 154.427 206 154.837 206 155.52C206 157.501 204.521 159.892 201.562 162.829C198.604 165.767 194.906 168.567 190.468 171.3C186.03 174.032 180.976 176.355 175.552 178.199C170.005 180.112 164.704 181 159.527 181C155.582 181 153.117 180.795 152.377 180.317C151.514 179.839 151.144 178.541 151.144 176.355V105.038V105.243Z" fill="white" stroke="black" stroke-miterlimit="10"/>
</svg>
